# xmcd
#
# Track frame offsets:
#	150
#	13242
#	30945
#	45212
#	63796
#	79262
#	93362
#	108881
#	123989
#	138879
#	154229
#	169215
#	184749
#	200776
#	216652
#	233530
#	249719
#	265631
#	282826
#	304379
#	320872
#	336829
#
# Disc length: 4648 seconds
#
# Revision: 0
# Processed by: cddbd v1.5.2PL0 Copyright (c) Steve Scherf et al.
# Submitted via: EasyCDDAExtractor 12.0.4.1
#
DISCID=38122616
DTITLE=ERG Music - Nu Country Traxx Volume 132 US
DYEAR=2010
DGENRE=country
TTITLE0=Little White Church - Little Big Town 214BPM
TTITLE1=Get Off On The Pain - Gary Allan 84BPM
TTITLE2=Kiss Me Now - Katie Armiger 117BPM
TTITLE3=Way Out Here - Josh Thompson 74BPM
TTITLE4=Makin' Me Fall In Love Again - Kellie Pickler 78BPM
TTITLE5=Chicken and Biscuits - Colt Ford 106BPM
TTITLE6=Farmer's Daughter - Rodney Atkins 68BPM
TTITLE7=All Over Me - Josh Turner 65BPM
TTITLE8=Rollin' Through The Sunshine - Trailer Choir 95BPM
TTITLE9=Slow And Steady - Jason Mitchell 65BPM
TTITLE10=A Father's Love (The Only Way He Knew How) - Bucky Covington 90BPM
TTITLE11=Hold That Thought - Chuck Wicks 58BPM
TTITLE12=The World Is Ours Tonight - Gloriana 72BPM
TTITLE13='Til A Woman Comes Along - Chris Janson 120BPM
TTITLE14=You Opened My Eyes - Mark Wayne Glasmire 59BPM
TTITLE15=Save Yourself - The McClymonts 165BPM
TTITLE16=Tell Me - Jake Owen 158BPM
TTITLE17=Simple Life - Jason Sturgeon 118BPM
TTITLE18=Colorado Line - Becky Schlegel 104BPM
TTITLE19=Nobody Knows - Coldwater Canyon Band 130BPM
TTITLE20=Are You The One - Guy Penrod 78BPM
TTITLE21=Dirt Road Dancing - Matt Stillwell 118BPM
EXTD=
EXTT0=
EXTT1=
EXTT2=
EXTT3=
EXTT4=
EXTT5=
EXTT6=
EXTT7=
EXTT8=
EXTT9=
EXTT10=
EXTT11=
EXTT12=
EXTT13=
EXTT14=
EXTT15=
EXTT16=
EXTT17=
EXTT18=
EXTT19=
EXTT20=
EXTT21=
PLAYORDER=
